<svg width="96" height="32" viewBox="0 0 96 32" fill="none" xmlns="http://www.w3.org/2000/svg">
<rect y="0.5" width="31" height="31" rx="8" fill="#5A6AFB"/>
<path d="M23.6336 7.32942C22.7204 6.41623 21.2398 6.41623 20.3267 7.32942L19.2959 8.36022L22.6028 11.6672L23.6336 10.6364C24.5468 9.72318 24.5468 8.24261 23.6336 7.32942Z" fill="white"/>
<path d="M21.658 12.612L18.351 9.30506L7.52699 20.1291C6.97755 20.6785 6.57367 21.3562 6.35184 22.1009L5.63939 24.4926C5.56936 24.7277 5.63381 24.9823 5.80727 25.1557C5.98074 25.3292 6.23532 25.3937 6.47043 25.3236L8.86214 24.6112C9.60683 24.3893 10.2845 23.9855 10.8339 23.436L21.658 12.612Z" fill="white"/>
<path d="M87.8523 4.77051V7.13184H85.2488V14.7607C86.5657 14.6851 87.8523 14.5488 89.0935 14.3975L89.2751 16.4863C83.7351 17.4551 77.2869 17.5156 72.7156 17.5156L72.3826 15.124C73.3967 15.124 74.5168 15.1392 75.6824 15.124V7.13184H73.1091V4.77051H87.8523ZM94.4216 2.5V20.7852H91.5457V2.5H94.4216ZM86.9744 19.877C86.9441 23.5098 90.7888 26.416 95.905 27.2637L94.8152 29.5039C90.6072 28.7773 87.0803 26.7036 85.4607 23.6914C83.8411 26.7036 80.2991 28.7773 76.1365 29.5039L74.9861 27.2637C80.1326 26.416 83.9773 23.5098 83.9773 19.877V19.3926H86.9744V19.877ZM78.4373 15.0938C79.7542 15.0635 81.1316 15.0181 82.4939 14.9424V7.13184H78.4373V15.0938Z" fill="#111827"/>
<path d="M47.9998 7.95304V3.5H69.9998V7.95304H61.7637V29.5H56.2358V7.95304H47.9998Z" fill="#5A6AFB"/>
<path d="M45.9998 3.5V29.5H39.9998V3.5H45.9998Z" fill="#5A6AFB"/>
</svg>
